<svg xmlns="http://www.w3.org/2000/svg" viewBox="0 0 100 100"><defs><style>.cls-1{fill:#fff;}.cls-2{fill:#252830;}</style></defs><g id="FB_icon" data-name="FB icon"><circle class="cls-1" cx="50" cy="50" r="50"/><path class="cls-2" d="M40.14,43.24h3.67c.26,0,.48.11.48-.44V37c0-.65.4-6.36,8.22-7H59.6c.33,0,.51,0,.51.51v5.82c0,.62.18.69-.44.69H55a1.72,1.72,0,0,0-1.6,1.64v4c0,.4.07.63.51.63h5.81c.4,0,.48.39.4,1s-.47,4.44-.58,5.1-.25.72-.65.72h-5c-.47,0-.6.08-.6.6V69.25c0,.5,0,.75-.76.75h-7.7c-.43,0-.54-.68-.54-1s-.08-18.36-.08-18.58,0-.42-.42-.42H40.21c-.51,0-.36-.57-.36-1.26v-4.8A.88.88,0,0,1,40.14,43.24Z"/></g></svg>