<svg xmlns="http://www.w3.org/2000/svg" viewBox="0 0 100 100"><defs><style>.cls-1{fill:#fff;}.cls-2{fill:#252830;}</style></defs><g id="VK_icon" data-name="VK icon"><circle class="cls-1" cx="50" cy="50" r="50"/><path class="cls-2" d="M28.21,31.54S34.5,48,40.11,51.89c2.47,1.72,2.62-.15,2.62-3V38.15a6.18,6.18,0,0,0-2.25-5c-1-.78-.9-3.07,1-3.07H54.1a1.57,1.57,0,0,1,1.35,1.65V46.82c0,.85.08,3.43,2.55,2.3s9.46-11.4,11.37-16.69a3.07,3.07,0,0,1,3-2.32H80.6s2.54-.3,1.72,2.47-1,4.87-10.48,18c-.74,1.17,1.09,3,2.17,4s8.44,9.35,9.21,10.77,3,3.49-1.13,4.49c-1.42.32-7.64,0-8.1,0s-2.27-.11-4.47-2.41C67,64.81,61.59,59,59.19,58.4s-3.22-.14-3.51,1.2c-.15,1.5,0,6.34,0,7.2s.09,2.61-2.45,2.9S30.76,74.55,15.69,33.41C14.63,29.86,17.37,30,19.8,30c1.85,0,6.43.1,6.43.1S27.52,29.82,28.21,31.54Z"/></g></svg>